<svg width="237" height="87" viewBox="0 0 237 87" fill="none" xmlns="http://www.w3.org/2000/svg">
<rect x="0.5" y="0.648621" width="235.641" height="85.7574" rx="12.9445" fill="#090909"/>
<path d="M54.5124 44.8275C54.5589 41.2042 56.4971 37.7759 59.572 35.8781C57.6322 33.097 54.3831 31.3336 51.0028 31.2274C47.3975 30.8475 43.9022 33.3933 42.065 33.3933C40.1922 33.3933 37.3635 31.2652 34.3175 31.3281C30.3471 31.4569 26.6457 33.723 24.714 37.2077C20.5617 44.4249 23.6589 55.0318 27.6365 60.8656C29.6266 63.7223 31.9524 66.9133 34.9957 66.8001C37.9738 66.6761 39.086 64.8937 42.6808 64.8937C46.2422 64.8937 47.2857 66.8001 50.3908 66.7282C53.5863 66.6761 55.5997 63.8588 57.52 60.9751C58.9498 58.9396 60.0501 56.69 60.7801 54.3095C57.0246 52.7149 54.5168 48.9209 54.5124 44.8275Z" fill="white"/>
<path d="M48.6474 27.3908C50.3898 25.291 51.2482 22.5921 51.0403 19.8671C48.3784 20.1478 45.9195 21.425 44.1536 23.4443C42.4268 25.4172 41.5281 28.0686 41.698 30.6894C44.3609 30.7169 46.9788 29.4744 48.6474 27.3908Z" fill="white"/>
<path d="M160.729 41.0853V45.4758H157.988V48.3551H160.729V58.1385C160.729 61.4791 162.235 62.8154 166.022 62.8154C166.688 62.8154 167.321 62.7358 167.876 62.6404V59.7929C167.401 59.8406 167.1 59.8724 166.577 59.8724C164.881 59.8724 164.136 59.077 164.136 57.2635V48.3551H167.876V45.4758H164.136V41.0853H160.729Z" fill="white"/>
<path d="M177.524 63.054C182.563 63.054 185.653 59.6656 185.653 54.0501C185.653 48.4665 182.547 45.0622 177.524 45.0622C172.485 45.0622 169.379 48.4665 169.379 54.0501C169.379 59.6656 172.469 63.054 177.524 63.054ZM177.524 60.0156C174.56 60.0156 172.897 57.8362 172.897 54.0501C172.897 50.2959 174.56 48.1006 177.524 48.1006C180.471 48.1006 182.151 50.2959 182.151 54.0501C182.151 57.8203 180.471 60.0156 177.524 60.0156Z" fill="white"/>
<path d="M188.296 62.7199H191.703V52.4912C191.703 50.0573 193.526 48.4188 196.108 48.4188C196.711 48.4188 197.725 48.5301 198.01 48.6256V45.2531C197.646 45.1577 196.996 45.1099 196.489 45.1099C194.239 45.1099 192.321 46.3508 191.83 48.0529H191.577V45.3963H188.296V62.7199Z" fill="white"/>
<path d="M206.469 47.9734C208.989 47.9734 210.637 49.7391 210.716 52.4594H202.001C202.191 49.755 203.95 47.9734 206.469 47.9734ZM210.7 58.043C210.066 59.3952 208.656 60.1429 206.596 60.1429C203.87 60.1429 202.112 58.218 202.001 55.1796V54.9887H214.186V53.7956C214.186 48.3551 211.286 45.0622 206.485 45.0622C201.62 45.0622 198.53 48.5779 198.53 54.1138C198.53 59.6497 201.557 63.054 206.501 63.054C210.447 63.054 213.204 61.145 213.98 58.043H210.7Z" fill="white"/>
<path d="M138.388 56.3226C138.65 60.5765 142.181 63.297 147.437 63.297C153.054 63.297 156.569 60.4446 156.569 55.8939C156.569 52.316 154.565 50.3374 149.704 49.1998L147.092 48.5567C144.005 47.8313 142.756 46.8585 142.756 45.1602C142.756 43.0168 144.694 41.6153 147.601 41.6153C150.361 41.6153 152.266 42.9838 152.611 45.1767H156.191C155.978 41.1701 152.463 38.3506 147.651 38.3506C142.477 38.3506 139.028 41.1701 139.028 45.4075C139.028 48.903 140.983 50.9805 145.269 51.9862L148.324 52.7282C151.461 53.4701 152.841 54.5584 152.841 56.372C152.841 58.4825 150.673 60.0159 147.716 60.0159C144.547 60.0159 142.346 58.5814 142.034 56.3226H138.388Z" fill="white"/>
<path d="M103.096 45.1099C100.75 45.1099 98.7222 46.2871 97.6764 48.2597H97.4228V45.3963H94.1427V68.4786H97.5496V60.0951H97.819C98.7222 61.9245 100.671 63.0063 103.127 63.0063C107.485 63.0063 110.258 59.5543 110.258 54.0501C110.258 48.546 107.485 45.1099 103.096 45.1099ZM102.129 59.9361C99.2768 59.9361 97.4862 57.6771 97.4862 54.0661C97.4862 50.4391 99.2768 48.1802 102.145 48.1802C105.029 48.1802 106.756 50.3913 106.756 54.0501C106.756 57.7249 105.029 59.9361 102.129 59.9361Z" fill="white"/>
<path d="M122.179 45.1099C119.834 45.1099 117.806 46.2871 116.76 48.2597H116.506V45.3963H113.226V68.4786H116.633V60.0951H116.903C117.806 61.9245 119.755 63.0063 122.211 63.0063C126.569 63.0063 129.342 59.5543 129.342 54.0501C129.342 48.546 126.569 45.1099 122.179 45.1099ZM121.213 59.9361C118.36 59.9361 116.57 57.6771 116.57 54.0661C116.57 50.4391 118.36 48.1802 121.229 48.1802C124.113 48.1802 125.84 50.3913 125.84 54.0501C125.84 57.7249 124.113 59.9361 121.213 59.9361Z" fill="white"/>
<path d="M88.0302 62.7199H91.9391L83.3822 38.9277H79.424L70.8672 62.7199H74.6447L76.8291 56.405H85.8622L88.0302 62.7199ZM81.2142 43.2476H81.4935L84.9261 53.3053H77.7652L81.2142 43.2476Z" fill="white"/>
<path d="M70.7734 22.1462V31.5506H74.1557C76.9473 31.5506 78.5638 29.8236 78.5638 26.8191C78.5638 23.8602 76.9343 22.1462 74.1557 22.1462H70.7734ZM72.2276 23.4757H73.9934C75.9345 23.4757 77.0836 24.714 77.0836 26.8386C77.0836 28.9959 75.954 30.2211 73.9934 30.2211H72.2276V23.4757Z" fill="white"/>
<path d="M83.5145 31.6875C85.579 31.6875 86.8449 30.2993 86.8449 27.9987C86.8449 25.7112 85.5725 24.3165 83.5145 24.3165C81.4501 24.3165 80.1777 25.7112 80.1777 27.9987C80.1777 30.2993 81.4436 31.6875 83.5145 31.6875ZM83.5145 30.4427C82.3005 30.4427 81.6189 29.5498 81.6189 27.9987C81.6189 26.4606 82.3005 25.5613 83.5145 25.5613C84.722 25.5613 85.4102 26.4606 85.4102 27.9987C85.4102 29.5433 84.722 30.4427 83.5145 30.4427Z" fill="white"/>
<path d="M97.6254 24.4533H96.2297L94.9702 29.8692H94.8599L93.4057 24.4533H92.0683L90.6141 29.8692H90.5103L89.2443 24.4533H87.8291L89.7767 31.5506H91.2114L92.6656 26.3238H92.7759L94.2366 31.5506H95.6843L97.6254 24.4533Z" fill="white"/>
<path d="M99.2328 31.5506H100.629V27.3991C100.629 26.2912 101.284 25.6004 102.317 25.6004C103.349 25.6004 103.842 26.1674 103.842 27.3079V31.5506H105.238V26.956C105.238 25.268 104.368 24.3165 102.79 24.3165C101.726 24.3165 101.025 24.7922 100.681 25.5808H100.577V24.4533H99.2328V31.5506Z" fill="white"/>
<path d="M107.436 31.5506H108.832V21.6835H107.436V31.5506Z" fill="white"/>
<path d="M114.081 31.6875C116.146 31.6875 117.412 30.2993 117.412 27.9987C117.412 25.7112 116.139 24.3165 114.081 24.3165C112.017 24.3165 110.744 25.7112 110.744 27.9987C110.744 30.2993 112.01 31.6875 114.081 31.6875ZM114.081 30.4427C112.867 30.4427 112.186 29.5498 112.186 27.9987C112.186 26.4606 112.867 25.5613 114.081 25.5613C115.289 25.5613 115.977 26.4606 115.977 27.9987C115.977 29.5433 115.289 30.4427 114.081 30.4427Z" fill="white"/>
<path d="M121.57 30.4883C120.811 30.4883 120.259 30.1168 120.259 29.4781C120.259 28.8525 120.7 28.5201 121.674 28.4549L123.401 28.3441V28.9372C123.401 29.817 122.622 30.4883 121.57 30.4883ZM121.213 31.668C122.142 31.668 122.914 31.2639 123.336 30.5535H123.446V31.5506H124.79V26.7018C124.79 25.2028 123.791 24.3165 122.018 24.3165C120.415 24.3165 119.272 25.0985 119.129 26.3173H120.48C120.635 25.8154 121.174 25.5287 121.953 25.5287C122.908 25.5287 123.401 25.9523 123.401 26.7018V27.3144L121.486 27.4252C119.805 27.5295 118.857 28.2659 118.857 29.5433C118.857 30.8403 119.85 31.668 121.213 31.668Z" fill="white"/>
<path d="M129.527 31.668C130.501 31.668 131.325 31.2052 131.747 30.4297H131.857V31.5506H133.195V21.6835H131.799V25.5808H131.695C131.312 24.7987 130.494 24.336 129.527 24.336C127.742 24.336 126.592 25.7568 126.592 27.9987C126.592 30.2472 127.729 31.668 129.527 31.668ZM129.923 25.5938C131.091 25.5938 131.825 26.5258 131.825 28.0052C131.825 29.4912 131.098 30.4101 129.923 30.4101C128.741 30.4101 128.034 29.5042 128.034 27.9987C128.034 26.5063 128.748 25.5938 129.923 25.5938Z" fill="white"/>
<path d="M142.246 31.6875C144.31 31.6875 145.576 30.2993 145.576 27.9987C145.576 25.7112 144.304 24.3165 142.246 24.3165C140.181 24.3165 138.909 25.7112 138.909 27.9987C138.909 30.2993 140.175 31.6875 142.246 31.6875ZM142.246 30.4427C141.032 30.4427 140.35 29.5498 140.35 27.9987C140.35 26.4606 141.032 25.5613 142.246 25.5613C143.453 25.5613 144.142 26.4606 144.142 27.9987C144.142 29.5433 143.453 30.4427 142.246 30.4427Z" fill="white"/>
<path d="M147.424 31.5506H148.82V27.3991C148.82 26.2912 149.475 25.6004 150.508 25.6004C151.54 25.6004 152.033 26.1674 152.033 27.3079V31.5506H153.429V26.956C153.429 25.268 152.559 24.3165 150.981 24.3165C149.917 24.3165 149.216 24.7922 148.872 25.5808H148.768V24.4533H147.424V31.5506Z" fill="white"/>
<path d="M159.857 22.6871V24.4859H158.734V25.6655H159.857V29.6737C159.857 31.0423 160.474 31.5897 162.026 31.5897C162.298 31.5897 162.558 31.5572 162.785 31.5181V30.3515C162.59 30.371 162.467 30.3841 162.253 30.3841C161.558 30.3841 161.253 30.0582 161.253 29.3152V25.6655H162.785V24.4859H161.253V22.6871H159.857Z" fill="white"/>
<path d="M164.659 31.5506H166.054V27.4056C166.054 26.3303 166.691 25.6069 167.833 25.6069C168.82 25.6069 169.346 26.1804 169.346 27.3144V31.5506H170.742V26.969C170.742 25.281 169.813 24.323 168.307 24.323C167.242 24.323 166.496 24.7987 166.152 25.5938H166.041V21.6835H164.659V31.5506Z" fill="white"/>
<path d="M175.777 25.5091C176.809 25.5091 177.484 26.2325 177.517 27.347H173.946C174.024 26.2391 174.745 25.5091 175.777 25.5091ZM177.51 29.6346C177.25 30.1885 176.673 30.4948 175.829 30.4948C174.712 30.4948 173.992 29.7063 173.946 28.4615V28.3832H178.938V27.8944C178.938 25.6655 177.75 24.3165 175.783 24.3165C173.79 24.3165 172.524 25.7568 172.524 28.0248C172.524 30.2928 173.764 31.6875 175.79 31.6875C177.406 31.6875 178.536 30.9054 178.854 29.6346H177.51Z" fill="white"/>
</svg>
