<svg width="231" height="87" viewBox="0 0 231 87" fill="none" xmlns="http://www.w3.org/2000/svg">
<rect x="0.726562" y="0.648621" width="230.089" height="85.7574" rx="12.9445" fill="#090909"/>
<g filter="url(#filter0_ii_644_3593)">
<path d="M23.6895 22.3646C23.1923 22.8929 22.8984 23.7127 22.8984 24.7744V62.7066C22.8984 63.77 23.1923 64.5881 23.6895 65.1164L23.8159 65.2399L44.9823 43.9909V43.7405V43.4901L23.8159 22.2394L23.6895 22.3646Z" fill="url(#paint0_linear_644_3593)"/>
<path d="M52.0387 51.0759L44.9844 43.9906V43.7402V43.4898L52.0404 36.4062L52.1993 36.4971L60.5589 41.2652C62.9456 42.627 62.9456 44.855 60.5589 46.2186L52.1993 50.9867L52.0387 51.0759Z" fill="url(#paint1_linear_644_3593)"/>
<g filter="url(#filter1_i_644_3593)">
<path d="M52.1952 50.9848L44.9786 43.7401L23.6875 65.116C24.4734 65.9529 25.7736 66.0559 27.2377 65.2223L52.1952 50.9848Z" fill="url(#paint2_linear_644_3593)"/>
</g>
<path d="M52.1952 36.4956L27.2377 22.2599C25.7736 21.4246 24.4734 21.5292 23.6875 22.3662L44.9803 43.7421L52.1952 36.4956Z" fill="url(#paint3_linear_644_3593)"/>
</g>
<path d="M116.031 45.8157C112.236 45.8157 109.143 48.701 109.143 52.6749C109.143 56.6246 112.236 59.5341 116.031 59.5341C119.828 59.5341 122.922 56.6246 122.922 52.6749C122.92 48.701 119.827 45.8157 116.031 45.8157ZM116.031 56.8343C113.952 56.8343 112.159 55.1199 112.159 52.6765C112.159 50.2074 113.953 48.5188 116.031 48.5188C118.111 48.5188 119.904 50.2074 119.904 52.6765C119.904 55.1183 118.111 56.8343 116.031 56.8343ZM101.002 45.8157C97.2072 45.8157 94.1139 48.701 94.1139 52.6749C94.1139 56.6246 97.2072 59.5341 101.002 59.5341C104.799 59.5341 107.892 56.6246 107.892 52.6749C107.892 48.701 104.799 45.8157 101.002 45.8157ZM101.002 56.8343C98.9224 56.8343 97.1297 55.1199 97.1297 52.6765C97.1297 50.2074 98.9241 48.5188 101.002 48.5188C103.082 48.5188 104.875 50.2074 104.875 52.6765C104.877 55.1183 103.082 56.8343 101.002 56.8343ZM83.1269 47.922V50.8315H90.0944C89.8863 52.4685 89.3409 53.6636 88.5082 54.4941C87.4949 55.507 85.9087 56.6246 83.1269 56.6246C78.8379 56.6246 75.4848 53.1684 75.4848 48.8816C75.4848 44.5949 78.8379 41.1387 83.1269 41.1387C85.4408 41.1387 87.1302 42.0483 88.3775 43.2175L90.4317 41.1645C88.689 39.5017 86.3767 38.2292 83.1269 38.2292C77.2517 38.2292 72.3125 43.0095 72.3125 48.8816C72.3125 54.7538 77.2517 59.5341 83.1269 59.5341C86.2976 59.5341 88.6906 58.4939 90.5607 56.5456C92.4842 54.6232 93.0828 51.9201 93.0828 49.738C93.0828 49.0639 93.0312 48.4397 92.9263 47.9204L83.1269 47.922ZM156.236 50.1816C155.665 48.6494 153.922 45.8157 150.361 45.8157C146.826 45.8157 143.887 48.5962 143.887 52.6749C143.887 56.5198 146.8 59.5341 150.698 59.5341C153.843 59.5341 155.663 57.6117 156.418 56.494L154.079 54.9344C153.299 56.0779 152.233 56.8311 150.698 56.8311C149.165 56.8311 148.073 56.1295 147.371 54.7522L156.547 50.9589L156.236 50.1816ZM146.877 52.4685C146.8 49.8171 148.931 48.4672 150.466 48.4672C151.661 48.4672 152.675 49.0655 153.014 49.9219L146.877 52.4685ZM139.417 59.1196H142.432V38.9582H139.417V59.1196ZM134.477 47.3495H134.373C133.697 46.5431 132.397 45.8157 130.76 45.8157C127.328 45.8157 124.183 48.83 124.183 52.7023C124.183 56.5472 127.328 59.5357 130.76 59.5357C132.398 59.5357 133.697 58.8083 134.373 57.9778H134.477V58.9648C134.477 61.5888 133.073 62.9919 130.812 62.9919C128.966 62.9919 127.822 61.6678 127.354 60.5502L124.729 61.642C125.482 63.4596 127.483 65.695 130.812 65.695C134.347 65.695 137.338 63.6161 137.338 58.5487V46.2334H134.478L134.477 47.3495ZM131.02 56.8343C128.94 56.8343 127.199 55.0925 127.199 52.7023C127.199 50.2848 128.94 48.5188 131.02 48.5188C133.073 48.5188 134.685 50.2848 134.685 52.7023C134.685 55.0925 133.073 56.8343 131.02 56.8343ZM170.362 38.9582H163.147V59.1196H166.156V51.4815H170.36C173.697 51.4815 176.979 49.0671 176.979 45.2206C176.979 41.3741 173.698 38.9582 170.362 38.9582ZM170.439 48.6752H166.156V41.7644H170.439C172.69 41.7644 173.968 43.6272 173.968 45.2206C173.968 46.7818 172.69 48.6752 170.439 48.6752ZM189.047 45.7803C186.867 45.7803 184.61 46.7399 183.675 48.8671L186.347 49.9816C186.919 48.8671 187.984 48.5026 189.099 48.5026C190.656 48.5026 192.239 49.4364 192.265 51.096V51.3041C191.719 50.9928 190.551 50.5267 189.125 50.5267C186.244 50.5267 183.311 52.1088 183.311 55.0651C183.311 57.7633 185.673 59.5002 188.319 59.5002C190.343 59.5002 191.459 58.5922 192.16 57.5278H192.263V59.0841H195.171V51.3541C195.172 47.7769 192.497 45.7803 189.047 45.7803ZM188.682 56.8295C187.698 56.8295 186.322 56.336 186.322 55.1167C186.322 53.5603 188.035 52.9636 189.515 52.9636C190.837 52.9636 191.461 53.2491 192.265 53.6378C192.031 55.507 190.422 56.8295 188.682 56.8295ZM205.759 46.2205L202.308 54.9619H202.204L198.622 46.2205H195.379L200.751 58.4374L197.688 65.2337H200.828L209.107 46.2205H205.759ZM178.641 59.1196H181.65V38.9582H178.641V59.1196Z" fill="white"/>
<path d="M82.7481 27.0327C82.7481 28.3598 82.3483 29.416 81.547 30.2046C80.6378 31.1421 79.4512 31.6108 77.9939 31.6108C76.5977 31.6108 75.4096 31.1358 74.4342 30.1856C73.4572 29.2339 72.9688 28.0557 72.9688 26.6495C72.9688 25.2417 73.4572 24.0636 74.4342 23.1134C75.4096 22.1617 76.5977 21.6866 77.9939 21.6866C78.6871 21.6866 79.3497 21.8196 79.9784 22.0841C80.6088 22.3501 81.1134 22.7033 81.4906 23.1451L80.641 23.9812C80.001 23.229 79.1191 22.8537 77.9922 22.8537C76.9733 22.8537 76.0931 23.2053 75.3499 23.9084C74.6067 24.6115 74.2359 25.5252 74.2359 26.6479C74.2359 27.7707 74.6067 28.6844 75.3499 29.3875C76.0931 30.0906 76.9733 30.4422 77.9922 30.4422C79.0724 30.4422 79.9736 30.089 80.6942 29.3812C81.1617 28.9204 81.4326 28.279 81.5051 27.4571H77.9922V26.3154H82.6788C82.7271 26.564 82.7481 26.8031 82.7481 27.0327Z" fill="white"/>
<path d="M90.1803 23.0644H85.7759V26.0764H89.7482V27.2181H85.7759V30.2301H90.1803V31.3987H84.5329V21.8973H90.1803V23.0644Z" fill="white"/>
<path d="M95.4213 31.3987H94.1783V23.0644H91.4763V21.8973H98.1232V23.0644H95.4213V31.3987Z" fill="white"/>
<path d="M102.932 31.3987V21.8973H104.175V31.3987H102.932Z" fill="white"/>
<path d="M109.687 31.3987H108.444V23.0644H105.742V21.8973H112.389V23.0644H109.687V31.3987Z" fill="white"/>
<path d="M124.972 30.1715C124.021 31.1311 122.839 31.6109 121.425 31.6109C120.011 31.6109 118.83 31.1311 117.88 30.1715C116.929 29.2118 116.455 28.0368 116.455 26.648C116.455 25.2592 116.929 24.0842 117.88 23.1246C118.83 22.1649 120.011 21.6835 121.425 21.6835C122.831 21.6835 124.011 22.1665 124.966 23.1309C125.92 24.0953 126.397 25.2671 126.397 26.648C126.397 28.0368 125.922 29.2118 124.972 30.1715ZM118.797 29.3749C119.513 30.0875 120.389 30.4422 121.425 30.4422C122.462 30.4422 123.339 30.0859 124.053 29.3749C124.769 28.6623 125.128 27.7533 125.128 26.648C125.128 25.5427 124.769 24.6337 124.053 23.9211C123.339 23.2085 122.462 22.8538 121.425 22.8538C120.389 22.8538 119.513 23.2101 118.797 23.9211C118.083 24.6337 117.724 25.5427 117.724 26.648C117.724 27.7533 118.083 28.6623 118.797 29.3749Z" fill="white"/>
<path d="M128.141 31.3987V21.8973H129.654L134.355 29.2878H134.408L134.355 27.4572V21.8973H135.598V31.3987H134.3L129.381 23.6488H129.328L129.381 25.4794V31.3987H128.141Z" fill="white"/>
<path d="M82.7481 27.0327C82.7481 28.3598 82.3483 29.416 81.547 30.2046C80.6378 31.1421 79.4512 31.6108 77.9939 31.6108C76.5977 31.6108 75.4096 31.1358 74.4342 30.1856C73.4572 29.2339 72.9688 28.0557 72.9688 26.6495C72.9688 25.2417 73.4572 24.0636 74.4342 23.1134C75.4096 22.1617 76.5977 21.6866 77.9939 21.6866C78.6871 21.6866 79.3497 21.8196 79.9784 22.0841C80.6088 22.3501 81.1134 22.7033 81.4906 23.1451L80.641 23.9812C80.001 23.229 79.1191 22.8537 77.9922 22.8537C76.9733 22.8537 76.0931 23.2053 75.3499 23.9084C74.6067 24.6115 74.2359 25.5252 74.2359 26.6479C74.2359 27.7707 74.6067 28.6844 75.3499 29.3875C76.0931 30.0906 76.9733 30.4422 77.9922 30.4422C79.0724 30.4422 79.9736 30.089 80.6942 29.3812C81.1617 28.9204 81.4326 28.279 81.5051 27.4571H77.9922V26.3154H82.6788C82.7271 26.564 82.7481 26.8031 82.7481 27.0327Z" stroke="white" stroke-width="0.0661826" stroke-miterlimit="10"/>
<path d="M90.1803 23.0644H85.7759V26.0764H89.7482V27.2181H85.7759V30.2301H90.1803V31.3987H84.5329V21.8973H90.1803V23.0644Z" stroke="white" stroke-width="0.0661826" stroke-miterlimit="10"/>
<path d="M95.4213 31.3987H94.1783V23.0644H91.4763V21.8973H98.1232V23.0644H95.4213V31.3987Z" stroke="white" stroke-width="0.0661826" stroke-miterlimit="10"/>
<path d="M102.932 31.3987V21.8973H104.175V31.3987H102.932Z" stroke="white" stroke-width="0.0661826" stroke-miterlimit="10"/>
<path d="M109.687 31.3987H108.444V23.0644H105.742V21.8973H112.389V23.0644H109.687V31.3987Z" stroke="white" stroke-width="0.0661826" stroke-miterlimit="10"/>
<path d="M124.972 30.1715C124.021 31.1311 122.839 31.6109 121.425 31.6109C120.011 31.6109 118.83 31.1311 117.88 30.1715C116.929 29.2118 116.455 28.0368 116.455 26.648C116.455 25.2592 116.929 24.0842 117.88 23.1246C118.83 22.1649 120.011 21.6835 121.425 21.6835C122.831 21.6835 124.011 22.1665 124.966 23.1309C125.92 24.0953 126.397 25.2671 126.397 26.648C126.397 28.0368 125.922 29.2118 124.972 30.1715ZM118.797 29.3749C119.513 30.0875 120.389 30.4422 121.425 30.4422C122.462 30.4422 123.339 30.0859 124.053 29.3749C124.769 28.6623 125.128 27.7533 125.128 26.648C125.128 25.5427 124.769 24.6337 124.053 23.9211C123.339 23.2085 122.462 22.8538 121.425 22.8538C120.389 22.8538 119.513 23.2101 118.797 23.9211C118.083 24.6337 117.724 25.5427 117.724 26.648C117.724 27.7533 118.083 28.6623 118.797 29.3749Z" stroke="white" stroke-width="0.0661826" stroke-miterlimit="10"/>
<path d="M128.141 31.3987V21.8973H129.654L134.355 29.2878H134.408L134.355 27.4572V21.8973H135.598V31.3987H134.3L129.381 23.6488H129.328L129.381 25.4794V31.3987H128.141Z" stroke="white" stroke-width="0.0661826" stroke-miterlimit="10"/>
<defs>
<filter id="filter0_ii_644_3593" x="22.8984" y="21.6835" width="39.4531" height="44.1146" filterUnits="userSpaceOnUse" color-interpolation-filters="sRGB">
<feFlood flood-opacity="0" result="BackgroundImageFix"/>
<feBlend mode="normal" in="SourceGraphic" in2="BackgroundImageFix" result="shape"/>
<feColorMatrix in="SourceAlpha" type="matrix" values="0 0 0 0 0 0 0 0 0 0 0 0 0 0 0 0 0 0 127 0" result="hardAlpha"/>
<feOffset dy="-0.257272"/>
<feComposite in2="hardAlpha" operator="arithmetic" k2="-1" k3="1"/>
<feColorMatrix type="matrix" values="0 0 0 0 0 0 0 0 0 0 0 0 0 0 0 0 0 0 0.12 0"/>
<feBlend mode="normal" in2="shape" result="effect1_innerShadow_644_3593"/>
<feColorMatrix in="SourceAlpha" type="matrix" values="0 0 0 0 0 0 0 0 0 0 0 0 0 0 0 0 0 0 127 0" result="hardAlpha"/>
<feOffset dy="0.257272"/>
<feComposite in2="hardAlpha" operator="arithmetic" k2="-1" k3="1"/>
<feColorMatrix type="matrix" values="0 0 0 0 1 0 0 0 0 1 0 0 0 0 1 0 0 0 0.25 0"/>
<feBlend mode="normal" in2="effect1_innerShadow_644_3593" result="effect2_innerShadow_644_3593"/>
</filter>
<filter id="filter1_i_644_3593" x="23.6875" y="43.7401" width="28.5078" height="22.058" filterUnits="userSpaceOnUse" color-interpolation-filters="sRGB">
<feFlood flood-opacity="0" result="BackgroundImageFix"/>
<feBlend mode="normal" in="SourceGraphic" in2="BackgroundImageFix" result="shape"/>
<feColorMatrix in="SourceAlpha" type="matrix" values="0 0 0 0 0 0 0 0 0 0 0 0 0 0 0 0 0 0 127 0" result="hardAlpha"/>
<feOffset dy="-0.257272"/>
<feComposite in2="hardAlpha" operator="arithmetic" k2="-1" k3="1"/>
<feColorMatrix type="matrix" values="0 0 0 0 0 0 0 0 0 0 0 0 0 0 0 0 0 0 0.08 0"/>
<feBlend mode="normal" in2="shape" result="effect1_innerShadow_644_3593"/>
</filter>
<linearGradient id="paint0_linear_644_3593" x1="43.106" y1="24.373" x2="14.3226" y2="53.0445" gradientUnits="userSpaceOnUse">
<stop stop-color="#00A0FF"/>
<stop offset="0.0066" stop-color="#00A1FF"/>
<stop offset="0.2601" stop-color="#00BEFF"/>
<stop offset="0.5122" stop-color="#00D2FF"/>
<stop offset="0.7604" stop-color="#00DFFF"/>
<stop offset="1" stop-color="#00E3FF"/>
</linearGradient>
<linearGradient id="paint1_linear_644_3593" x1="63.6658" y1="43.7402" x2="22.3275" y2="43.7402" gradientUnits="userSpaceOnUse">
<stop stop-color="#FFE000"/>
<stop offset="0.4087" stop-color="#FFBD00"/>
<stop offset="0.7754" stop-color="#FFA500"/>
<stop offset="1" stop-color="#FF9C00"/>
</linearGradient>
<linearGradient id="paint2_linear_644_3593" x1="48.2761" y1="47.6744" x2="9.2422" y2="86.5566" gradientUnits="userSpaceOnUse">
<stop stop-color="#FF3A44"/>
<stop offset="1" stop-color="#C31162"/>
</linearGradient>
<linearGradient id="paint3_linear_644_3593" x1="18.3253" y1="9.73896" x2="35.755" y2="27.1009" gradientUnits="userSpaceOnUse">
<stop stop-color="#32A071"/>
<stop offset="0.0685" stop-color="#2DA771"/>
<stop offset="0.4762" stop-color="#15CF74"/>
<stop offset="0.8009" stop-color="#06E775"/>
<stop offset="1" stop-color="#00F076"/>
</linearGradient>
</defs>
</svg>
