<svg width="120" height="43" viewBox="0 0 120 43" fill="none" xmlns="http://www.w3.org/2000/svg">
<g filter="url(#filter0_d_337_5203)">
<path d="M33.0025 6.97076C32.5366 6.95894 32.073 7.03986 31.6386 7.2088C31.2042 7.37773 30.8079 7.63129 30.4725 7.95476C30.1371 8.27824 29.8694 8.66515 29.685 9.09299C29.5006 9.52082 29.4032 9.98105 29.3984 10.4469C29.3984 12.7223 31.2376 12.8779 31.2376 15.6351H34.7971C34.7971 12.8408 36.6362 12.6704 36.6362 10.4469C36.6316 9.97848 36.5332 9.51576 36.347 9.08593C36.1608 8.65609 35.8905 8.26783 35.5519 7.94395C35.2133 7.62007 34.8134 7.3671 34.3756 7.19998C33.9378 7.03285 33.4709 6.95492 33.0025 6.97076Z" fill="white"/>
</g>
<path fill-rule="evenodd" clip-rule="evenodd" d="M20.7048 22.9808C22.0648 22.1513 23.1846 20.9812 23.9532 19.5864C24.7219 18.1916 25.1129 16.6203 25.0875 15.0281C25.0797 12.3696 24.0191 9.82234 22.1375 7.9432C20.2559 6.06406 17.7065 5.00587 15.0466 5H0V42.3551H16.3147C19.0682 42.3551 21.7089 41.2618 23.6559 39.3159C25.6029 37.3699 26.6968 34.7307 26.6968 31.9787C26.7126 30.052 26.1502 28.1649 25.082 26.5609C24.0139 24.957 22.4892 23.7099 20.7048 22.9808ZM3.72269 8.52056H15.0466C16.7364 8.57755 18.3379 9.28851 19.5131 10.5034C20.6883 11.7182 21.3452 13.342 21.3452 15.0318C21.3452 16.7216 20.6883 18.3453 19.5131 19.5601C18.3379 20.775 16.7364 21.486 15.0466 21.543H3.73753L3.72269 8.52056ZM16.2776 38.8345H3.73753V25.0635H16.2924C18.1196 25.0635 19.8719 25.789 21.1639 27.0803C22.4559 28.3715 23.1817 30.1229 23.1817 31.949C23.1817 33.7752 22.4559 35.5265 21.1639 36.8178C19.8719 38.109 18.1196 38.8345 16.2924 38.8345H16.2776ZM86.0221 15.0282C82.2252 15.0282 79.1328 16.5106 77.049 19.831V15.6731H73.5265V37.6784C73.5265 37.9851 73.4046 38.2792 73.1877 38.496C72.9707 38.7129 72.6765 38.8347 72.3696 38.8347H68.5431C68.2363 38.8347 67.9421 38.7129 67.7251 38.496C67.5081 38.2792 67.3863 37.9851 67.3863 37.6784V15.6731H63.8638V20.8613C62.7304 19.0303 61.1393 17.5261 59.2473 16.4968C57.3553 15.4675 55.2276 14.9486 53.0738 14.9912C51.2453 14.9979 49.4363 15.367 47.7516 16.0773C46.0668 16.7876 44.5398 17.8249 43.259 19.1292C41.9782 20.4334 40.969 21.9787 40.2899 23.6755C39.6108 25.3723 39.2753 27.1869 39.3027 29.0142V37.6784C39.3027 37.9851 39.1809 38.2792 38.9639 38.496C38.747 38.7129 38.4527 38.8347 38.1459 38.8347H35.9212C35.7696 38.8347 35.6195 38.8047 35.4795 38.7465C35.3396 38.6883 35.2125 38.603 35.1057 38.4956C34.9989 38.3881 34.9144 38.2606 34.857 38.1204C34.7997 37.9801 34.7707 37.8299 34.7717 37.6784V15.6731H31.2344V38.3677C31.2344 39.4253 31.6547 40.4395 32.4029 41.1873C33.1511 41.9351 34.1659 42.3552 35.2241 42.3552H38.8355C39.8937 42.3552 40.9084 41.9351 41.6567 41.1873C42.4049 40.4395 42.8252 39.4253 42.8252 38.3677C44.1066 39.8221 45.6835 40.9869 47.4507 41.7844C49.2179 42.5819 51.1348 42.9938 53.0738 42.9926C55.2278 43.0368 57.3561 42.5185 59.2484 41.489C61.1407 40.4596 62.7315 38.9545 63.8638 37.1226V38.3677C63.8628 38.891 63.9651 39.4094 64.1648 39.8931C64.3645 40.3769 64.6576 40.8165 65.0275 41.1869C65.3974 41.5573 65.8368 41.8511 66.3204 42.0516C66.804 42.252 67.3225 42.3552 67.846 42.3552H73.0371C74.0952 42.3552 75.11 41.9351 75.8582 41.1873C76.6064 40.4395 77.0268 39.4253 77.0268 38.3677V28.3693C77.0268 21.2244 80.9794 18.445 85.6735 18.445C90.3677 18.445 92.941 21.2245 92.941 25.9679V42.3552H96.4635V25.9679C96.4857 19.2974 92.5332 15.0282 86.0221 15.0282ZM53.3334 39.5833C51.24 39.5921 49.1911 38.9797 47.4462 37.8237C45.7013 36.6677 44.339 35.0202 43.5318 33.0897C42.7246 31.1592 42.5088 29.0327 42.9118 26.9796C43.3148 24.9265 44.3184 23.0391 45.7956 21.5565C47.2727 20.074 49.1569 19.0629 51.2094 18.6515C53.2619 18.2401 55.3905 18.4468 57.3254 19.2454C59.2603 20.044 60.9145 21.3986 62.0784 23.1377C63.2424 24.8767 63.8638 26.9219 63.8638 29.0142C63.8898 30.4055 63.6355 31.7878 63.116 33.079C62.5966 34.3701 61.8227 35.5436 60.8402 36.5297C59.8577 37.5158 58.6869 38.2943 57.3972 38.8188C56.1076 39.3434 54.7256 39.6034 53.3334 39.5833ZM109.225 18.445C106.444 18.445 103.619 19.7791 103.619 22.6622C103.619 25.6457 106.786 26.5148 110.266 27.4696C114.506 28.633 119.21 29.9236 119.214 35.3214C119.214 39.8574 115.284 43 109.574 43C104.234 43 100.6 40.2799 99.2656 36.8631L102.232 35.1065C103.196 37.7895 105.969 39.5535 109.551 39.5535C112.725 39.5535 115.692 38.427 115.692 35.2844C115.692 32.3005 112.526 31.4316 109.05 30.4773C104.815 29.3149 100.118 28.0257 100.118 22.6326C100.118 18.3634 103.915 14.9985 109.255 14.9985C113.63 14.9985 117.049 17.1331 118.599 20.4461L115.632 22.1508C114.512 19.4604 111.783 18.445 109.225 18.445Z" fill="url(#paint0_linear_337_5203)"/>
<defs>
<filter id="filter0_d_337_5203" x="23.0093" y="0.579608" width="20.0166" height="21.4443" filterUnits="userSpaceOnUse" color-interpolation-filters="sRGB">
<feFlood flood-opacity="0" result="BackgroundImageFix"/>
<feColorMatrix in="SourceAlpha" type="matrix" values="0 0 0 0 0 0 0 0 0 0 0 0 0 0 0 0 0 0 127 0" result="hardAlpha"/>
<feOffset/>
<feGaussianBlur stdDeviation="3.19457"/>
<feComposite in2="hardAlpha" operator="out"/>
<feColorMatrix type="matrix" values="0 0 0 0 0.847059 0 0 0 0 0.431373 0 0 0 0 0.705882 0 0 0 1 0"/>
<feBlend mode="normal" in2="BackgroundImageFix" result="effect1_dropShadow_337_5203"/>
<feBlend mode="normal" in="SourceGraphic" in2="effect1_dropShadow_337_5203" result="shape"/>
</filter>
<linearGradient id="paint0_linear_337_5203" x1="0" y1="5" x2="119.243" y2="43.0356" gradientUnits="userSpaceOnUse">
<stop stop-color="#F4614D"/>
<stop offset="0.489583" stop-color="#C376FF"/>
<stop offset="1" stop-color="#3B72FF"/>
</linearGradient>
</defs>
</svg>
